<svg width="55" height="77" viewBox="0 0 55 77" fill="none" xmlns="http://www.w3.org/2000/svg">
<path d="M6.73933 50.99L9.13391 51.4126L9.13592 51.4012L9.13783 51.3897L6.73933 50.99ZM8.16933 48.975L9.5424 50.9818L9.57125 50.9621L9.59952 50.9415L8.16933 48.975ZM8.88433 48.455L7.45861 46.4852L7.45414 46.4885L8.88433 48.455ZM20.2593 40.135L18.8226 38.1733L18.8159 38.1782L18.8093 38.1831L20.2593 40.135ZM27.1493 34.35L25.3841 32.6777L25.3829 32.679L27.1493 34.35ZM29.1643 28.24L26.8948 29.1129V29.1129L29.1643 28.24ZM25.1343 28.045L26.6741 29.9269L26.7231 29.8868L26.77 29.8442L25.1343 28.045ZM23.5743 30.71L21.2976 29.8562L21.2909 29.8741L21.2844 29.8922L23.5743 30.71ZM22.5343 31.945L23.4374 34.2027L23.4895 34.1818L23.5405 34.1586L22.5343 31.945ZM7.71433 31.815L5.86814 33.3974L5.98987 33.5395L6.13188 33.6612L7.71433 31.815ZM7.32433 30.775L4.89313 30.7323L4.89275 30.7537V30.775H7.32433ZM8.88433 24.145L6.72853 23.0202L6.72381 23.0293L6.71917 23.0384L8.88433 24.145ZM13.1093 19.01L14.634 20.9042L13.1093 19.01ZM19.3493 15.76L20.0674 18.0831L20.0866 18.0772L20.1056 18.071L19.3493 15.76ZM37.3543 16.345L36.4455 18.6003L36.46 18.6062L36.4746 18.6119L37.3543 16.345ZM44.1143 21.285L42.1597 22.7314V22.7314L44.1143 21.285ZM44.7643 35.78L46.8728 36.9912L44.7643 35.78ZM39.8243 41.63L41.4255 43.46L41.4282 43.4576L39.8243 41.63ZM32.4793 47.285L31.0953 45.2858L31.0806 45.296L31.066 45.3063L32.4793 47.285ZM32.0243 47.61L30.611 45.6313L24.4367 50.0416H32.0243V47.61ZM46.9743 48.13L45.2549 49.8494L45.2549 49.8494L46.9743 48.13ZM46.9743 60.48L45.2549 58.7606L45.2549 58.7606L46.9743 60.48ZM8.29933 58.5684C8.36303 58.5684 8.46414 58.5816 8.57667 58.629C8.68785 58.6758 8.75641 58.7333 8.78372 58.7606L5.34495 62.1994C6.13307 62.9875 7.15748 63.4316 8.29933 63.4316V58.5684ZM8.78372 58.7606C8.81102 58.7879 8.86855 58.8565 8.91536 58.9677C8.96274 59.0802 8.97591 59.1813 8.97591 59.245H4.11275C4.11275 60.3869 4.55682 61.4113 5.34495 62.1994L8.78372 58.7606ZM8.97591 59.245V52.485H4.11275V59.245H8.97591ZM8.97591 52.485C8.97591 52.5166 8.97528 52.4528 9.00424 52.2307C9.03035 52.0305 9.07251 51.7605 9.13391 51.4126L4.34475 50.5674C4.21988 51.275 4.11275 51.9788 4.11275 52.485H8.97591ZM9.13783 51.3897C9.1398 51.3779 9.14282 51.3571 9.1773 51.3085C9.21838 51.2506 9.31926 51.1345 9.5424 50.9818L6.79626 46.9682C5.57807 47.8017 4.60653 48.9961 4.34084 50.5902L9.13783 51.3897ZM9.59952 50.9415L10.3145 50.4215L7.45414 46.4885L6.73915 47.0085L9.59952 50.9415ZM10.3101 50.4247C14.8647 47.1281 18.6651 44.3484 21.7093 42.0869L18.8093 38.1831C15.7869 40.4283 12.004 43.1953 7.45861 46.4853L10.3101 50.4247ZM21.6961 42.0967C24.8191 39.8094 27.2513 37.7806 28.9158 36.021L25.3829 32.679C24.014 34.1261 21.8529 35.9539 18.8226 38.1733L21.6961 42.0967ZM28.9145 36.0223C30.5907 34.253 31.9209 32.2136 31.9209 29.995H27.0578C27.0578 30.2897 26.8279 31.1537 25.3841 32.6777L28.9145 36.0223ZM31.9209 29.995C31.9209 29.0915 31.7582 28.2105 31.4338 27.3671L26.8948 29.1129C27.0038 29.3962 27.0578 29.6852 27.0578 29.995H31.9209ZM31.4338 27.3671C30.6119 25.23 28.3629 24.9634 27.1493 24.9634V29.8266C27.3333 29.8266 27.4576 29.8383 27.5328 29.8501C27.6096 29.8621 27.609 29.8702 27.5577 29.8486C27.5034 29.8258 27.3797 29.7644 27.2406 29.6321C27.0946 29.4932 26.9722 29.3141 26.8948 29.1129L31.4338 27.3671ZM27.1493 24.9634C25.8899 24.9634 24.5584 25.2824 23.4987 26.2458L26.77 29.8442C26.7284 29.8821 26.7041 29.8839 26.7421 29.8717C26.789 29.8565 26.9139 29.8266 27.1493 29.8266V24.9634ZM23.5946 26.1631C22.8383 26.7818 22.2341 27.5525 21.8498 28.4748L26.3389 30.3452C26.3879 30.2275 26.4771 30.0882 26.6741 29.9269L23.5946 26.1631ZM21.8498 28.4748C21.627 29.0094 21.4416 29.4721 21.2976 29.8562L25.8511 31.5638C25.967 31.2546 26.1283 30.8506 26.3389 30.3452L21.8498 28.4748ZM21.2844 29.8922C21.2549 29.9748 21.2456 29.9624 21.2919 29.9075C21.3152 29.8798 21.3485 29.8464 21.3923 29.8129C21.4363 29.7794 21.4828 29.752 21.5281 29.7314L23.5405 34.1586C24.7492 33.6092 25.4806 32.602 25.8643 31.5278L21.2844 29.8922ZM21.6313 29.6873C21.5571 29.717 21.3599 29.7734 20.9743 29.7734V34.6366C21.8021 34.6366 22.6449 34.5197 23.4374 34.2027L21.6313 29.6873ZM20.9743 29.7734H8.75433V34.6366H20.9743V29.7734ZM8.75433 29.7734C8.83518 29.7734 8.94159 29.788 9.05562 29.8307C9.1688 29.8732 9.24972 29.9285 9.29678 29.9688L6.13188 33.6612C6.86415 34.2888 7.76857 34.6366 8.75433 34.6366V29.7734ZM9.56052 30.2325C9.60086 30.2796 9.65615 30.3605 9.69859 30.4737C9.74135 30.5877 9.75591 30.6942 9.75591 30.775H4.89275C4.89275 31.7608 5.24048 32.6652 5.86814 33.3974L9.56052 30.2325ZM9.75554 30.8176C9.79321 28.6702 10.2418 26.8318 11.0495 25.2516L6.71917 23.0384C5.53349 25.3582 4.94212 27.9398 4.89313 30.7323L9.75554 30.8176ZM11.0401 25.2698C11.9228 23.5781 13.1146 22.1271 14.634 20.9042L11.5847 17.1158C9.55072 18.7529 7.9259 20.7253 6.72853 23.0202L11.0401 25.2698ZM14.634 20.9042C16.1497 19.6842 17.95 18.7376 20.0674 18.0831L18.6313 13.4369C15.982 14.2557 13.6223 15.4758 11.5847 17.1158L14.634 20.9042ZM20.1056 18.071C22.2204 17.3789 24.5409 17.0216 27.0843 17.0216V12.1584C24.0811 12.1584 21.2449 12.5811 18.593 13.449L20.1056 18.071ZM27.0843 17.0216C30.794 17.0216 33.8953 17.5727 36.4455 18.6003L38.2632 14.0897C35.0067 12.7773 31.2613 12.1584 27.0843 12.1584V17.0216ZM36.4746 18.6119C39.0173 19.5986 40.8703 20.9889 42.1597 22.7314L46.0689 19.8386C44.1517 17.2477 41.498 15.3447 38.234 14.0781L36.4746 18.6119ZM42.1597 22.7314C43.4105 24.4217 44.0878 26.5173 44.0878 29.15H48.9509C48.9509 25.6294 48.0248 22.4817 46.0689 19.8386L42.1597 22.7314ZM44.0878 29.15C44.0878 31.1148 43.6109 32.9063 42.6559 34.5688L46.8728 36.9912C48.2577 34.5804 48.9509 31.9518 48.9509 29.15H44.0878ZM42.6559 34.5688C41.6429 36.3321 40.1824 38.0807 38.2205 39.8024L41.4282 43.4576C43.713 41.4526 45.5457 39.3012 46.8728 36.9912L42.6559 34.5688ZM38.2231 39.8C36.2263 41.5473 33.8535 43.3762 31.0953 45.2858L33.8634 49.2842C36.7385 47.2938 39.2624 45.3527 41.4255 43.4599L38.2231 39.8ZM31.066 45.3063L30.611 45.6313L33.4377 49.5887L33.8927 49.2637L31.066 45.3063ZM32.0243 50.0416H45.7393V45.1784H32.0243V50.0416ZM45.7393 50.0416C45.6756 50.0416 45.5745 50.0284 45.462 49.981C45.3508 49.9342 45.2822 49.8767 45.2549 49.8494L48.6937 46.4106C47.9056 45.6225 46.8812 45.1784 45.7393 45.1784V50.0416ZM45.2549 49.8494C45.2276 49.8221 45.1701 49.7535 45.1233 49.6423C45.0759 49.5298 45.0628 49.4287 45.0628 49.365H49.9259C49.9259 48.2231 49.4818 47.1987 48.6937 46.4106L45.2549 49.8494ZM45.0628 49.365V59.245H49.9259V49.365H45.0628ZM45.0628 59.245C45.0628 59.1813 45.0759 59.0802 45.1233 58.9677C45.1701 58.8565 45.2276 58.7879 45.2549 58.7606L48.6937 62.1994C49.4818 61.4113 49.9259 60.3869 49.9259 59.245H45.0628ZM45.2549 58.7606C45.2822 58.7333 45.3508 58.6758 45.462 58.629C45.5745 58.5816 45.6756 58.5684 45.7393 58.5684V63.4316C46.8812 63.4316 47.9056 62.9875 48.6937 62.1994L45.2549 58.7606ZM45.7393 58.5684H8.29933V63.4316H45.7393V58.5684Z" fill="#4BA5E7"/>
</svg>
