<svg width="55" height="77" viewBox="0 0 55 77" fill="none" xmlns="http://www.w3.org/2000/svg">
<path d="M26.6537 60.48L24.9343 62.1994L24.9343 62.1994L26.6537 60.48ZM26.1337 53.72H28.5653V51.2884H26.1337V53.72ZM5.65871 40.655L3.72731 39.1777L3.72033 39.1869L3.71344 39.1961L5.65871 40.655ZM24.0537 16.605L22.1767 15.0592L22.1489 15.093L22.1223 15.1277L24.0537 16.605ZM41.2137 16.02L42.9331 14.3006L42.9331 14.3006L41.2137 16.02ZM41.7337 40.525H39.3021V42.9566H41.7337V40.525ZM48.6887 41.045L46.8588 42.6462L46.9121 42.7071L46.9693 42.7644L48.6887 41.045ZM48.6887 53.2L50.4081 54.9194L50.4081 54.9194L48.6887 53.2ZM41.7337 53.72V51.2884H39.3021V53.72H41.7337ZM41.2137 60.48L42.9331 62.1994L42.9331 62.1994L41.2137 60.48ZM19.7637 41.24L17.799 39.8074L14.9813 43.6716H19.7637V41.24ZM26.5887 41.24V43.6716H29.0203V41.24H26.5887ZM26.5887 31.88H29.0203V24.4182L24.624 30.4474L26.5887 31.88ZM27.8887 58.5684C27.9524 58.5684 28.0535 58.5816 28.166 58.629C28.2772 58.6758 28.3458 58.7333 28.3731 58.7606L24.9343 62.1994C25.7224 62.9875 26.7469 63.4316 27.8887 63.4316V58.5684ZM28.3731 58.7606C28.4004 58.7879 28.4579 58.8565 28.5047 58.9677C28.5521 59.0802 28.5653 59.1813 28.5653 59.245H23.7021C23.7021 60.3869 24.1462 61.4113 24.9343 62.1994L28.3731 58.7606ZM28.5653 59.245V53.72H23.7021V59.245H28.5653ZM26.1337 51.2884H6.69871V56.1516H26.1337V51.2884ZM6.69871 51.2884C6.76241 51.2884 6.86352 51.3016 6.97605 51.349C7.08722 51.3958 7.15579 51.4533 7.18309 51.4806L3.74432 54.9194C4.53244 55.7075 5.55685 56.1516 6.69871 56.1516V51.2884ZM7.18309 51.4806C7.2104 51.5079 7.26793 51.5765 7.31474 51.6877C7.36212 51.8002 7.37528 51.9013 7.37528 51.965H2.51213C2.51213 53.1069 2.9562 54.1313 3.74432 54.9194L7.18309 51.4806ZM7.37528 51.965V42.67H2.51213V51.965H7.37528ZM7.37528 42.67C7.37528 42.5909 7.37835 42.529 7.38239 42.4825C7.38645 42.4359 7.39111 42.4092 7.39307 42.3994C7.39505 42.3895 7.3933 42.4017 7.38291 42.4312C7.37246 42.4608 7.35184 42.5118 7.31491 42.5764L3.0925 40.1636C2.61792 40.9941 2.51213 41.9164 2.51213 42.67H7.37528ZM7.31491 42.5764C7.46449 42.3146 7.55958 42.1731 7.60397 42.1139L3.71344 39.1961C3.49784 39.4835 3.28958 39.8187 3.0925 40.1636L7.31491 42.5764ZM7.5901 42.1323L25.9851 18.0823L22.1223 15.1277L3.72731 39.1777L7.5901 42.1323ZM25.9307 18.1508C26.0524 18.003 26.1515 17.9316 26.4587 17.9316V13.0684C24.7726 13.0684 23.2684 13.7336 22.1767 15.0592L25.9307 18.1508ZM26.4587 17.9316H39.9787V13.0684H26.4587V17.9316ZM39.9787 17.9316C39.915 17.9316 39.8139 17.9184 39.7014 17.871C39.5902 17.8242 39.5216 17.7667 39.4943 17.7394L42.9331 14.3006C42.145 13.5125 41.1206 13.0684 39.9787 13.0684V17.9316ZM39.4943 17.7394C39.467 17.7121 39.4095 17.6435 39.3627 17.5323C39.3153 17.4198 39.3021 17.3187 39.3021 17.255H44.1653C44.1653 16.1131 43.7212 15.0887 42.9331 14.3006L39.4943 17.7394ZM39.3021 17.255V40.525H44.1653V17.255H39.3021ZM41.7337 42.9566H47.3887V38.0934H41.7337V42.9566ZM47.3887 42.9566C47.4235 42.9566 47.3565 42.962 47.2331 42.9127C47.0982 42.8587 46.9633 42.7657 46.8588 42.6462L50.5187 39.4438C49.6524 38.4537 48.4833 38.0934 47.3887 38.0934V42.9566ZM46.9693 42.7644C46.942 42.7371 46.8845 42.6685 46.8377 42.5573C46.7903 42.4448 46.7771 42.3437 46.7771 42.28H51.6403C51.6403 41.1381 51.1962 40.1137 50.4081 39.3256L46.9693 42.7644ZM46.7771 42.28V51.965H51.6403V42.28H46.7771ZM46.7771 51.965C46.7771 51.9013 46.7903 51.8002 46.8377 51.6877C46.8845 51.5765 46.942 51.5079 46.9693 51.4806L50.4081 54.9194C51.1962 54.1313 51.6403 53.1068 51.6403 51.965H46.7771ZM46.9693 51.4806C46.9966 51.4533 47.0652 51.3958 47.1764 51.349C47.2889 51.3016 47.39 51.2884 47.4537 51.2884V56.1516C48.5956 56.1516 49.62 55.7075 50.4081 54.9194L46.9693 51.4806ZM47.4537 51.2884H41.7337V56.1516H47.4537V51.2884ZM39.3021 53.72V59.245H44.1653V53.72H39.3021ZM39.3021 59.245C39.3021 59.1813 39.3153 59.0802 39.3627 58.9677C39.4095 58.8565 39.467 58.7879 39.4943 58.7606L42.9331 62.1994C43.7212 61.4113 44.1653 60.3868 44.1653 59.245H39.3021ZM39.4943 58.7606C39.5216 58.7333 39.5902 58.6758 39.7014 58.629C39.8139 58.5816 39.915 58.5684 39.9787 58.5684V63.4316C41.1206 63.4316 42.145 62.9875 42.9331 62.1994L39.4943 58.7606ZM39.9787 58.5684H27.8887V63.4316H39.9787V58.5684ZM19.7637 43.6716H26.5887V38.8084H19.7637V43.6716ZM29.0203 41.24V31.88H24.1571V41.24H29.0203ZM24.624 30.4474L17.799 39.8074L21.7284 42.6726L28.5534 33.3126L24.624 30.4474Z" fill="#4BA5E7"/>
</svg>
