<svg width="55" height="77" viewBox="0 0 55 77" fill="none" xmlns="http://www.w3.org/2000/svg">
<path d="M15.5687 59.765L16.5416 57.5366L15.5687 59.765ZM8.61367 54.435L6.6088 55.8109L6.61788 55.8241L6.62715 55.8372L8.61367 54.435ZM6.20867 47.22H3.77709V47.2605L3.77844 47.301L6.20867 47.22ZM6.59867 46.245L8.31805 47.9644L6.59867 46.245ZM22.3287 46.18L20.8697 48.1253L20.9237 48.1658L20.9799 48.2032L22.3287 46.18ZM23.1087 46.83L21.1634 48.289L21.1942 48.33L21.2267 48.3698L23.1087 46.83ZM24.2137 48.065L22.4943 49.7844L22.4943 49.7844L24.2137 48.065ZM25.3837 48.845L24.4806 51.1027L24.5164 51.117L24.5527 51.1302L25.3837 48.845ZM30.5187 47.285L28.4733 45.9701L28.439 46.0235L28.4075 46.0786L30.5187 47.285ZM30.6487 43.19L28.4738 44.2774L28.4903 44.3104L28.5077 44.3428L30.6487 43.19ZM29.2837 41.695L27.8996 43.6942L27.9338 43.7179L27.9688 43.7404L29.2837 41.695ZM25.4487 41.37L26.2176 43.6768L26.2854 43.6542L26.3517 43.6277L25.4487 41.37ZM24.4087 41.89L22.9953 39.9113L22.9216 39.964L22.852 40.022L24.4087 41.89ZM23.6937 42.475L24.9447 44.5601L25.0849 44.4759L25.2127 44.3737L23.6937 42.475ZM9.00367 42.28L7.15747 43.8624L7.2792 44.0045L7.42122 44.1262L9.00367 42.28ZM8.61367 41.24L6.1968 40.9729L6.18209 41.1061V41.24H8.61367ZM11.2137 17.71L8.79874 17.4259L8.79774 17.4344L8.7968 17.4429L11.2137 17.71ZM12.0587 16.085L13.4889 18.0515L13.5033 18.041L13.5176 18.0303L12.0587 16.085ZM23.8237 28.175V25.7434H21.6507L21.4074 27.9027L23.8237 28.175ZM23.3037 32.79L20.8874 32.5177L20.2956 37.7697L24.669 34.8021L23.3037 32.79ZM26.9437 31.1L27.5334 33.459L27.5619 33.4518L27.5903 33.444L26.9437 31.1ZM37.7987 31.685L36.9047 33.9463L36.9135 33.9498L36.9223 33.9532L37.7987 31.685ZM42.9337 34.805L41.3214 36.6252L42.9337 34.805ZM46.5087 39.55L44.3133 40.5954L44.3233 40.6165L44.3338 40.6374L46.5087 39.55ZM45.5337 53.525L47.5895 54.8234L45.5337 53.525ZM38.5787 59.505L39.6538 61.686L38.5787 59.505ZM27.0737 59.3484C22.6994 59.3484 19.2206 58.7063 16.5416 57.5366L14.5957 61.9934C18.0701 63.5104 22.2613 64.2116 27.0737 64.2116V59.3484ZM16.5416 57.5366C13.7744 56.3283 11.849 54.8019 10.6002 53.0327L6.62715 55.8372C8.49834 58.4881 11.2096 60.515 14.5957 61.9934L16.5416 57.5366ZM10.6185 53.0591C9.3558 51.2191 8.70963 49.261 8.6389 47.139L3.77844 47.301C3.88104 50.379 4.8382 53.2309 6.6088 55.8109L10.6185 53.0591ZM8.64025 47.22C8.64025 47.2991 8.62613 47.4311 8.56383 47.5868C8.5004 47.7454 8.40894 47.8735 8.31805 47.9644L4.87928 44.5256C4.13346 45.2714 3.77709 46.2285 3.77709 47.22H8.64025ZM8.31805 47.9644C8.28377 47.9987 8.19984 48.0706 8.06079 48.1315C7.91727 48.1942 7.76858 48.2216 7.63867 48.2216V43.3584C6.53625 43.3584 5.58855 43.8163 4.87928 44.5256L8.31805 47.9644ZM7.63867 48.2216H20.7687V43.3584H7.63867V48.2216ZM20.7687 48.2216C20.8669 48.2216 20.9422 48.2262 20.9971 48.2321C21.0523 48.238 21.0813 48.2446 21.0889 48.2465C21.1068 48.2509 21.0092 48.2299 20.8697 48.1253L23.7876 44.2347C22.8345 43.5199 21.6958 43.3584 20.7687 43.3584V48.2216ZM20.9799 48.2032C21.128 48.302 21.2158 48.369 21.2595 48.4055C21.2802 48.4227 21.2807 48.4246 21.2674 48.4113C21.2556 48.3994 21.2156 48.3585 21.1634 48.289L25.0539 45.371C24.6572 44.8421 24.0932 44.4339 23.6775 44.1568L20.9799 48.2032ZM21.2267 48.3698C21.6556 48.8939 22.0782 49.3683 22.4943 49.7844L25.9331 46.3456C25.6558 46.0683 25.3417 45.7194 24.9906 45.2902L21.2267 48.3698ZM22.4943 49.7844C23.0618 50.3519 23.7262 50.8009 24.4806 51.1027L26.2867 46.5873C26.1745 46.5424 26.0588 46.4714 25.9331 46.3456L22.4943 49.7844ZM24.5527 51.1302C25.3736 51.4287 26.2588 51.5366 27.1387 51.5366V46.6734C26.6319 46.6734 26.347 46.608 26.2146 46.5598L24.5527 51.1302ZM27.1387 51.5366C28.2008 51.5366 29.2241 51.3009 30.1761 50.8249L28.0012 46.4751C27.7399 46.6058 27.4632 46.6734 27.1387 46.6734V51.5366ZM30.1761 50.8249C31.2257 50.3001 32.0526 49.5015 32.6299 48.4914L28.4075 46.0786C28.2914 46.2818 28.165 46.3932 28.0012 46.4751L30.1761 50.8249ZM32.5641 48.5999C33.2531 47.5281 33.5352 46.3129 33.5352 45.075H28.6721C28.6721 45.5704 28.5643 45.8286 28.4733 45.9701L32.5641 48.5999ZM33.5352 45.075C33.5352 44.0138 33.2994 42.984 32.7896 42.0372L28.5077 44.3428C28.6046 44.5226 28.6721 44.7495 28.6721 45.075H33.5352ZM32.8235 42.1026C32.3123 41.0802 31.5486 40.2603 30.5986 39.6496L27.9688 43.7404C28.2321 43.9097 28.3783 44.0865 28.4738 44.2774L32.8235 42.1026ZM30.6677 39.6958C29.6018 38.9578 28.3687 38.6784 27.1387 38.6784V43.5416C27.642 43.5416 27.8389 43.6522 27.8996 43.6942L30.6677 39.6958ZM27.1387 38.6784C26.2722 38.6784 25.3701 38.7825 24.5456 39.1123L26.3517 43.6277C26.3939 43.6108 26.6184 43.5416 27.1387 43.5416V38.6784ZM24.6797 39.0632C24.0832 39.262 23.515 39.5401 22.9953 39.9113L25.822 43.8687C25.909 43.8065 26.0341 43.738 26.2176 43.6768L24.6797 39.0632ZM22.852 40.022C22.6019 40.2305 22.3763 40.415 22.1747 40.5763L25.2127 44.3737C25.4444 44.1884 25.6955 43.9829 25.9653 43.758L22.852 40.022ZM22.4426 40.3899C22.5208 40.3431 22.6122 40.3027 22.7126 40.2754C22.8126 40.2481 22.9039 40.2384 22.9787 40.2384V45.1016C23.666 45.1016 24.3388 44.9236 24.9447 44.5601L22.4426 40.3899ZM22.9787 40.2384H10.0437V45.1016H22.9787V40.2384ZM10.0437 40.2384C10.1245 40.2384 10.2309 40.253 10.345 40.2957C10.4581 40.3382 10.5391 40.3935 10.5861 40.4338L7.42122 44.1262C8.15349 44.7539 9.0579 45.1016 10.0437 45.1016V40.2384ZM10.8499 40.6975C10.8902 40.7446 10.9455 40.8255 10.9879 40.9387C11.0307 41.0527 11.0452 41.1592 11.0452 41.24H6.18209C6.18209 42.2258 6.52981 43.1302 7.15747 43.8624L10.8499 40.6975ZM11.0305 41.5071L13.6305 17.9771L8.7968 17.4429L6.1968 40.9729L11.0305 41.5071ZM13.6286 17.9941C13.6447 17.8573 13.668 17.8331 13.6473 17.8731C13.6365 17.8937 13.6173 17.925 13.5871 17.9603C13.5567 17.9959 13.5227 18.0269 13.4889 18.0515L10.6285 14.1185C9.46834 14.9622 8.94279 16.2015 8.79874 17.4259L13.6286 17.9941ZM13.5176 18.0303C13.6487 17.932 13.7067 17.9316 13.7487 17.9316V13.0684C12.5773 13.0684 11.5087 13.458 10.5997 14.1397L13.5176 18.0303ZM13.7487 17.9316H42.8037V13.0684H13.7487V17.9316ZM42.8037 17.9316C42.74 17.9316 42.6389 17.9184 42.5263 17.871C42.4151 17.8242 42.3466 17.7667 42.3193 17.7394L45.7581 14.3006C44.9699 13.5125 43.9455 13.0684 42.8037 13.0684V17.9316ZM42.3193 17.7394C42.292 17.7121 42.2345 17.6435 42.1876 17.5323C42.1403 17.4198 42.1271 17.3187 42.1271 17.255H46.9902C46.9902 16.1131 46.5462 15.0887 45.7581 14.3006L42.3193 17.7394ZM42.1271 17.255V26.42H46.9902V17.255H42.1271ZM42.1271 26.42C42.1271 26.3563 42.1403 26.2552 42.1876 26.1427C42.2345 26.0315 42.292 25.9629 42.3193 25.9356L45.7581 29.3744C46.5462 28.5863 46.9902 27.5619 46.9902 26.42H42.1271ZM42.3193 25.9356C42.3466 25.9083 42.4151 25.8508 42.5263 25.804C42.6389 25.7566 42.74 25.7434 42.8037 25.7434V30.6066C43.9455 30.6066 44.9699 30.1625 45.7581 29.3744L42.3193 25.9356ZM42.8037 25.7434H23.8237V30.6066H42.8037V25.7434ZM21.4074 27.9027L20.8874 32.5177L25.72 33.0623L26.24 28.4473L21.4074 27.9027ZM24.669 34.8021C25.6861 34.1119 26.6402 33.6823 27.5334 33.459L26.3539 28.741C24.8205 29.1244 23.3479 29.8214 21.9383 30.7779L24.669 34.8021ZM27.5903 33.444C28.5464 33.1803 29.9903 33.0116 32.0137 33.0116V28.1484C29.7904 28.1484 27.8542 28.3264 26.297 28.756L27.5903 33.444ZM32.0137 33.0116C33.6993 33.0116 35.3245 33.3215 36.9047 33.9463L38.6927 29.4237C36.5462 28.5751 34.3147 28.1484 32.0137 28.1484V33.0116ZM36.9223 33.9532C38.5614 34.5865 40.0234 35.4756 41.3214 36.6252L44.5459 32.9847C42.8106 31.4478 40.8492 30.2569 38.675 29.4168L36.9223 33.9532ZM41.3214 36.6252C42.595 37.7532 43.5877 39.0718 44.3133 40.5954L48.704 38.5046C47.6963 36.3882 46.3057 34.5435 44.5459 32.9847L41.3214 36.6252ZM44.3338 40.6374C45.0641 42.0981 45.4421 43.7158 45.4421 45.53H50.3052C50.3052 43.0109 49.7732 40.6419 48.6835 38.4626L44.3338 40.6374ZM45.4421 45.53C45.4421 47.9201 44.7979 50.1363 43.4778 52.2266L47.5895 54.8234C49.3894 51.9737 50.3052 48.8599 50.3052 45.53H45.4421ZM43.4778 52.2266C42.1961 54.2559 40.2491 55.9706 37.5035 57.324L39.6538 61.686C43.0615 60.0061 45.7512 57.7341 47.5895 54.8234L43.4778 52.2266ZM37.5035 57.324C34.8548 58.6297 31.4147 59.3484 27.0737 59.3484V64.2116C31.9193 64.2116 36.1492 63.4136 39.6538 61.686L37.5035 57.324Z" fill="#4BA5E7"/>
</svg>
