<svg width="15" height="321" viewBox="0 0 15 321" fill="none" xmlns="http://www.w3.org/2000/svg">
<path d="M3.00002 318L2.50002 318L2.50002 318.5L3.00002 318.5L3.00002 318ZM15 318L10 315.113L10 320.887L15 318ZM2.50001 116L2.50002 318L3.50002 318L3.50001 116L2.50001 116ZM3.00002 318.5L10.5 318.5L10.5 317.5L3.00002 317.5L3.00002 318.5Z" fill="url(#paint0_linear_606_982)"/>
<path d="M2.99999 0.333333C1.52723 0.333333 0.333324 1.52724 0.333324 3C0.333324 4.47276 1.52723 5.66667 2.99999 5.66667C4.47275 5.66667 5.66666 4.47276 5.66666 3C5.66666 1.52724 4.47275 0.333333 2.99999 0.333333ZM2.99999 116L2.49999 116L2.49999 116.5L2.99999 116.5L2.99999 116ZM15 116L10 113.113L9.99999 118.887L15 116ZM2.49999 3L2.49999 116L3.49999 116L3.49999 3L2.49999 3ZM2.99999 116.5L10.5 116.5L10.5 115.5L2.99999 115.5L2.99999 116.5Z" fill="url(#paint1_linear_606_982)"/>
<defs>
<linearGradient id="paint0_linear_606_982" x1="2.56262" y1="116" x2="2.56262" y2="322" gradientUnits="userSpaceOnUse">
<stop stop-color="#161719"/>
<stop offset="0.03125" stop-color="#51DFBA"/>
<stop offset="0.078125" stop-color="#1F0E0D"/>
<stop offset="0.104167" stop-color="#D1797D"/>
<stop offset="0.151042" stop-color="#8070E6"/>
<stop offset="0.213542" stop-color="#4378E5"/>
<stop offset="0.265625" stop-color="#47423D"/>
<stop offset="0.380208" stop-color="#FFFDBF"/>
<stop offset="0.442708" stop-color="#EF6D6B"/>
<stop offset="0.557292" stop-color="#12110F"/>
<stop offset="0.671875" stop-color="#120E0B"/>
<stop offset="0.744792" stop-color="#9BF751"/>
<stop offset="0.796875" stop-color="#171413"/>
<stop offset="0.880208" stop-color="#61E1FE"/>
<stop offset="1" stop-color="#FFFCAD"/>
</linearGradient>
<linearGradient id="paint1_linear_606_982" x1="2.56259" y1="-2.51852" x2="2.56259" y2="120.5" gradientUnits="userSpaceOnUse">
<stop stop-color="#161719"/>
<stop offset="0.00650464" stop-color="#51DFBA"/>
<stop offset="0.078125" stop-color="#1F0E0D"/>
<stop offset="0.104167" stop-color="#D1797D"/>
<stop offset="0.151042" stop-color="#8070E6"/>
<stop offset="0.213542" stop-color="#4378E5"/>
<stop offset="0.265625" stop-color="#47423D"/>
<stop offset="0.380208" stop-color="#FFFDBF"/>
<stop offset="0.442708" stop-color="#EF6D6B"/>
<stop offset="0.557292" stop-color="#12110F"/>
<stop offset="0.671875" stop-color="#120E0B"/>
<stop offset="0.744792" stop-color="#9BF751"/>
<stop offset="0.796875" stop-color="#171413"/>
<stop offset="0.880208" stop-color="#61E1FE"/>
<stop offset="1" stop-color="#FFFCAD"/>
</linearGradient>
</defs>
</svg>
